<?xml version="1.0" encoding="UTF-8"?>
<svg width="61px" height="56px" viewBox="0 0 61 56" version="1.1" xmlns="http://www.w3.org/2000/svg" xmlns:xlink="http://www.w3.org/1999/xlink">
    <title>Monogram</title>
    <g id="Services" stroke="none" stroke-width="1" fill="none" fill-rule="evenodd">
        <g id="Service-Details---Strategy" transform="translate(-305.000000, -3857.000000)" fill-rule="nonzero">
            <g id="Thought-Leadership" transform="translate(0.000000, 3754.000000)">
                <g id="Monogram" transform="translate(305.000000, 103.000000)">
                    <rect id="Rectangle-path" fill="#659199" x="0" y="0" width="61" height="56"></rect>
                    <path d="M16.3874883,20.5079365 C16.433458,20.0904495 16.2602534,19.67781 15.9211018,19.3968254 L12.4663866,15.5714286 L12.4663866,15 L23.1932773,15 L31.4845938,31.7142856 L38.7740431,15 L49,15 L49,15.5714286 L46.0462185,18.1746032 C45.7915701,18.353023 45.6652516,18.6462685 45.7180206,18.9365079 L45.7180206,38.0634922 C45.6652516,38.3537315 45.7915701,38.646977 46.0462185,38.8253969 L48.9309057,41.4285715 L48.9309057,42 L34.4211018,42 L34.4211018,41.4285715 L37.4094306,38.7619048 C37.7030812,38.4920634 37.7030812,38.4126985 37.7030812,38 L37.7030812,22.5396826 L29.3944911,41.9365079 L28.2717087,41.9365079 L18.5985061,22.5396826 L18.5985061,35.5396825 C18.5178544,36.0862391 18.7153362,36.6365019 19.1339869,37.0317461 L23.0205415,41.3650794 L23.0205415,41.9365079 L12,41.9365079 L12,41.3650794 L15.8865546,37.0317461 C16.3021572,36.6358467 16.4881237,36.0819336 16.3874883,35.5396825 L16.3874883,20.5079365 Z" id="Shape" fill="#FFFFFF"></path>
                </g>
            </g>
        </g>
    </g>
</svg>