<svg width="49" height="50" xmlns="http://www.w3.org/2000/svg"><defs><filter id="a"><feColorMatrix in="SourceGraphic" values="0 0 0 0 0.925490 0 0 0 0 0.058824 0 0 0 0 0.015686 0 0 0 1.000000 0"/></filter></defs><g transform="translate(-379)" filter="url(#a)" fill="none" fill-rule="evenodd"><g fill="#FFF" fill-rule="nonzero"><path d="M403.649 38.537c-2.035.452-4.22.109-6.15-.967-3.989-2.22-5.644-6.907-3.692-10.447l6.42-11.643c.095-.17.326-.221.517-.115.192.107.271.331.177.501l-6.42 11.643c-1.766 3.2-.269 7.438 3.337 9.445 1.746.973 3.721 1.283 5.56.875 1.84-.409 3.324-1.488 4.18-3.038l5.297-9.606c.093-.17.325-.221.516-.114.192.106.27.33.177.5l-5.297 9.606c-.946 1.715-2.587 2.908-4.622 3.36z"/><path d="M413.346 25.732a.42.42 0 01-.294-.046c-.192-.107-.271-.33-.177-.5l2.889-5.24c.969-1.756-.147-4.245-2.487-5.548-2.34-1.303-5.031-.934-6 .822-.093.17-.325.222-.516.115-.192-.107-.271-.33-.177-.5 1.156-2.097 4.31-2.568 7.033-1.053 2.722 1.516 3.996 4.455 2.84 6.55l-2.889 5.24a.33.33 0 01-.222.16z"/><path d="M401.992 33.848c-.743.165-1.54.04-2.247-.353-1.456-.811-2.061-2.523-1.348-3.816l8.187-14.845c.093-.17.325-.221.516-.115.192.107.271.331.177.501l-8.186 14.845c-.526.954-.08 2.216.994 2.814a2.36 2.36 0 001.657.261c.548-.122.99-.443 1.245-.905l8.187-14.845c.094-.17.325-.221.516-.115.192.107.271.331.177.501l-8.186 14.845c-.346.626-.945 1.062-1.689 1.227z"/></g></g></svg>