<svg width="36" height="20" xmlns="http://www.w3.org/2000/svg" xmlns:xlink="http://www.w3.org/1999/xlink"><defs><path id="a" d="M0 0h36v20H0z"/><path id="c" d="M0 0h36v20H0z"/></defs><g fill="none" fill-rule="evenodd"><g><mask id="b" fill="#fff"><use xlink:href="#a"/></mask><path d="M35.573 8.026L27.167 0l-2.283 1.947 5.911 5.637H-18v2.832h48.795l-5.91 5.637L27.166 18l8.406-8.026c.287-.275.428-.597.427-.974a1.506 1.506 0 00-.427-.974z" fill="#000" mask="url(#b)"/></g><g><mask id="d" fill="#fff"><use xlink:href="#c"/></mask><path d="M35.573 8.026L27.167 0l-2.283 1.947 5.911 5.637H-18v2.832h48.795l-5.91 5.637L27.166 18l8.406-8.026c.287-.275.428-.597.427-.974a1.506 1.506 0 00-.427-.974z" fill="#000" mask="url(#d)"/></g></g></svg>